:FULLY-SPECIFIED
:FORCE-ALL-JOINTS-BE-3DOF
:DEGREES
2752
root -5.55334 13.9703 -28.3997 1242.03 -65.2003 -161.112
lfemur -59.472 42.9809 -6.31783
ltibia 67.907 0 0
lfoot -2.45215 -1.32533 0
ltoes -31.3736 0 0
rfemur -30.8844 -18.5701 21.686
rtibia 81.7896 0 0
rfoot -35.068 -24.7738 0
rtoes -14.5734 0 0
lowerback 15.7319 5.82288 0.539042
upperback -4.02376 8.12637 1.48775
thorax -13.4706 3.80432 -0.848544
lowerneck -2.40289 9.61831 2.06346
upperneck 7.51545 12.5797 1.9799
head 2.80741 6.35005 0.686361
lclavicle 2.39131e-14 -5.98274e-15 0
lhumerus 3.53667 10.6925 83.9466
lradius 94.7989 0 0
lwrist -19.1598 0 0
lhand -39.8025 387.634 0
lfingers 7.12502 0 0
lthumb -12.7774 -662.776 0
rclavicle 2.39131e-14 -5.98274e-15 0
rhumerus -57.876 50.8948 -110.17
rradius 114.094 0 0
rwrist -84.6794 0 0
rhand 4.62746 -386.959 0
rfingers 7.12502 0 0
rthumb 30.0146 305.456 0
2753
root -5.56213 13.9602 -28.4066 1242.06 -65.2097 -161.132
lfemur -59.5417 43.0399 -6.31794
ltibia 68.0464 0 0
lfoot -2.50364 -1.39037 0
ltoes -31.3878 0 0
rfemur -30.8745 -18.5934 21.6659
rtibia 81.8812 0 0
rfoot -35.1666 -24.7987 0
rtoes -14.5853 0 0
lowerback 15.7072 5.8224 0.525546
upperback -4.03556 8.12308 1.48802
thorax -13.4715 3.80412 -0.838122
lowerneck -2.40222 9.61776 2.06567
upperneck 7.53803 12.5783 1.98088
head 2.81509 6.34941 0.687158
lclavicle 2.41099e-14 -5.84783e-15 0
lhumerus 3.53383 10.72 83.9448
lradius 94.7818 0 0
lwrist -19.181 0 0
lhand -39.7994 387.64 0
lfingers 7.12502 0 0
lthumb -12.7743 -662.771 0
rclavicle 2.41099e-14 -5.84783e-15 0
rhumerus -57.9044 50.8572 -110.192
rradius 114.098 0 0
rwrist -84.6637 0 0
rhand 4.65983 -386.94 0
rfingers 7.12502 0 0
rthumb 30.0455 305.481 0
2754
root -5.57092 13.9501 -28.4135 1242.08 -65.219 -161.153
lfemur -59.6108 43.0994 -6.31658
ltibia 68.1878 0 0
lfoot -2.5563 -1.45591 0
ltoes -31.4035 0 0
rfemur -30.8644 -18.6161 21.6453
rtibia 81.9759 0 0
rfoot -35.2674 -24.8244 0
rtoes -14.5952 0 0
lowerback 15.6819 5.82191 0.511813
upperback -4.04744 8.11976 1.48853
thorax -13.4723 3.80393 -0.827247
lowerneck -2.40186 9.61724 2.06797
upperneck 7.56143 12.5769 1.98164
head 2.82313 6.34879 0.687931
lclavicle 2.42702e-14 -5.69928e-15 0
lhumerus 3.52926 10.7478 83.943
lradius 94.7657 0 0
lwrist -19.2006 0 0
lhand -39.7961 387.646 0
lfingers 7.12502 0 0
lthumb -12.7712 -662.764 0
rclavicle 2.42702e-14 -5.69928e-15 0
rhumerus -57.9314 50.8205 -110.213
rradius 114.101 0 0
rwrist -84.6492 0 0
rhand 4.69218 -386.922 0
rfingers 7.12502 0 0
rthumb 30.0763 305.505 0
2755
root -5.57971 13.9399 -28.4205 1242.11 -65.2281 -161.176
lfemur -59.6792 43.1595 -6.31383
ltibia 68.3309 0 0
lfoot -2.61001 -1.52191 0
ltoes -31.4204 0 0
rfemur -30.8541 -18.6383 21.6245
rtibia 82.0734 0 0
rfoot -35.3701 -24.8508 0
rtoes -14.6031 0 0
lowerback 15.656 5.82141 0.497874
upperback -4.05938 8.1164 1.48925
thorax -13.4728 3.80377 -0.815956
lowerneck -2.40178 9.61674 2.07036
upperneck 7.58561 12.5756 1.98221
head 2.83151 6.34818 0.68868
lclavicle 2.43947e-14 -5.53834e-15 0
lhumerus 3.52307 10.7757 83.9411
lradius 94.7507 0 0
lwrist -19.2184 0 0
lhand -39.7928 387.654 0
lfingers 7.12502 0 0
lthumb -12.768 -662.756 0
rclavicle 2.43947e-14 -5.53834e-15 0
rhumerus -57.957 50.7845 -110.234
rradius 114.103 0 0
rwrist -84.6361 0 0
rhand 4.72452 -386.903 0
rfingers 7.12502 0 0
rthumb 30.1072 305.53 0
2756
root -5.58849 13.9298 -28.4274 1242.14 -65.2371 -161.2
lfemur -59.7471 43.22 -6.30978
ltibia 68.4757 0 0
lfoot -2.66468 -1.58834 0
ltoes -31.4383 0 0
rfemur -30.8438 -18.6599 21.6033
rtibia 82.1736 0 0
rfoot -35.4746 -24.878 0
rtoes -14.6092 0 0
lowerback 15.6297 5.8209 0.483762
upperback -4.07137 8.11301 1.49019
thorax -13.4732 3.80363 -0.804286
lowerneck -2.40196 9.61627 2.07283
upperneck 7.61052 12.5742 1.98259
head 2.84021 6.34757 0.689407
lclavicle 2.44841e-14 -5.36626e-15 0
lhumerus 3.51541 10.8038 83.9392
lradius 94.7366 0 0
lwrist -19.2346 0 0
lhand -39.7895 387.662 0
lfingers 7.12502 0 0
lthumb -12.7648 -662.747 0
rclavicle 2.44841e-14 -5.36626e-15 0
rhumerus -57.9814 50.7495 -110.254
rradius 114.104 0 0
rwrist -84.6242 0 0
rhand 4.75685 -386.884 0
rfingers 7.12502 0 0
rthumb 30.138 305.554 0
2757
root -5.59728 13.9196 -28.4344 1242.17 -65.2461 -161.225
lfemur -59.8145 43.2809 -6.3045
ltibia 68.6219 0 0
lfoot -2.72019 -1.65516 0
ltoes -31.4572 0 0
rfemur -30.8333 -18.6809 21.582
rtibia 82.2763 0 0
rfoot -35.5809 -24.9059 0
rtoes -14.6135 0 0
lowerback 15.603 5.82037 0.469506
upperback -4.0834 8.1096 1.49133
thorax -13.4734 3.80351 -0.792274
lowerneck -2.40241 9.61582 2.07537
upperneck 7.63611 12.5729 1.98279
head 2.84921 6.34698 0.690114
lclavicle 2.45389e-14 -5.18427e-15 0
lhumerus 3.50639 10.832 83.9373
lradius 94.7234 0 0
lwrist -19.2492 0 0
lhand -39.7862 387.671 0
lfingers 7.12502 0 0
lthumb -12.7616 -662.738 0
rclavicle 2.45389e-14 -5.18427e-15 0
rhumerus -58.0045 50.7152 -110.274
rradius 114.104 0 0
rwrist -84.6134 0 0
rhand 4.78919 -386.864 0
rfingers 7.12502 0 0
rthumb 30.1689 305.579 0
2758
root -5.60607 13.9095 -28.4413 1242.19 -65.255 -161.251
lfemur -59.8814 43.342 -6.29806
ltibia 68.7694 0 0
lfoot -2.77644 -1.72233 0
ltoes -31.4768 0 0
rfemur -30.8228 -18.7014 21.5605
rtibia 82.3812 0 0
rfoot -35.6886 -24.9344 0
rtoes -14.616 0 0
lowerback 15.576 5.81984 0.455139
upperback -4.09545 8.10617 1.49265
thorax -13.4734 3.80341 -0.779959
lowerneck -2.40309 9.61539 2.07798
upperneck 7.66233 12.5716 1.98283
head 2.85849 6.3464 0.690802
lclavicle 2.45599e-14 -4.99363e-15 0
lhumerus 3.49616 10.8603 83.9354
lradius 94.7111 0 0
lwrist -19.2624 0 0
lhand -39.7828 387.682 0
lfingers 7.12502 0 0
lthumb -12.7584 -662.727 0
rclavicle 2.45599e-14 -4.99363e-15 0
rhumerus -58.0264 50.6818 -110.293
rradius 114.104 0 0
rwrist -84.6037 0 0
rhand 4.82156 -386.845 0
rfingers 7.12502 0 0
rthumb 30.1998 305.604 0
2759
root -5.61486 13.8994 -28.4482 1242.22 -65.2638 -161.278
lfemur -59.9479 43.4034 -6.29056
ltibia 68.9181 0 0
lfoot -2.83333 -1.78982 0
ltoes -31.497 0 0
rfemur -30.8122 -18.7214 21.5389
rtibia 82.4883 0 0
rfoot -35.7977 -24.9636 0
rtoes -14.617 0 0
lowerback 15.5487 5.81929 0.440692
upperback -4.1075 8.10272 1.49414
thorax -13.4734 3.80331 -0.767376
lowerneck -2.404 9.61499 2.08065
upperneck 7.68912 12.5704 1.98272
head 2.86802 6.34582 0.691472
lclavicle 2.45477e-14 -4.79559e-15 0
lhumerus 3.48484 10.8887 83.9334
lradius 94.6995 0 0
lwrist -19.2742 0 0
lhand -39.7794 387.693 0
lfingers 7.12502 0 0
lthumb -12.7551 -662.716 0
rclavicle 2.45477e-14 -4.79559e-15 0
rhumerus -58.0472 50.6493 -110.312
rradius 114.102 0 0
rwrist -84.5951 0 0
rhand 4.85395 -386.826 0
rfingers 7.12502 0 0
rthumb 30.2307 305.629 0
